<?xml version="1.0"?>
<svg xmlns="http://www.w3.org/2000/svg" xmlns:xlink="http://www.w3.org/1999/xlink" version="1.1" id="Capa_1" x="0px" y="0px" viewBox="0 0 392.8 392.8" style="enable-background:new 0 0 392.8 392.8;" xml:space="preserve" width="512px" height="512px" class=""><g><polygon style="fill:#72A6F9" points="196.4,0 292,49.2 388,98 292,147.2 196.4,196.4 100.8,147.2 4.8,98 100.8,49.2 " data-original="#D9AC80" class="" data-old_color="#4286FF"/><polygon style="fill:#A6C5FB" points="109.2,44.8 300.8,142.8 283.6,151.6 92,53.6 " data-original="#F2D3BA" class="" data-old_color="#A5C4FB"/><g>
	<path style="fill:#72A6F9" d="M388,294.8V98l-96,49.2l-95.6,49.2v196.4L388,294.8z" data-original="#A67E4F" class="" data-old_color="#71A5F9"/>
	<path style="fill:#02338E" d="M274,182.4l44.8-22c6.8-3.2,14.8-0.8,17.2,5.6c2.4,6.4-1.2,14.4-8,18l-44.4,22   c-6.8,3.2-14.8,0.8-17.2-5.6C263.6,194,267.2,185.6,274,182.4z" data-original="#643513" class="active-path" data-old_color="#023490"/>
	<polygon style="fill:#034DC4" points="196.4,392.8 196.4,196.4 100.8,147.2 4.8,98 4.8,294.8  " data-original="#926E43" class="" data-old_color="#034dc4"/>
</g></g> </svg>
